<svg width="626.8" height="254.84" viewBox="0 0 470.1 191.13" class="displayed_equation" xmlns="http://www.w3.org/2000/svg">
  <path d="M260.507813 384.307812L2233.90625 384.307812 2233.90625 1644.58125 260.507813 1644.58125zM2449.179688 384.307812L4436.015625 384.307812 4436.015625 1644.58125 2449.179688 1644.58125zM2449.179688 384.307812" transform="matrix(.1 0 0 -.1 0 191.13)" fill="none" stroke-width="8.97" stroke="#000" stroke-miterlimit="10" />
  <path d="M 415.976563 1425.557813 L 408.515625 1425.557813 C 391.25 1425.557813 377.109375 1439.659375 377.109375 1456.964063 L 377.109375 1464.425 C 377.109375 1481.690625 391.25 1495.792188 408.515625 1495.792188 L 415.976563 1495.792188 C 433.242188 1495.792188 447.382813 1481.690625 447.382813 1464.425 L 447.382813 1456.964063 C 447.382813 1439.659375 433.242188 1425.557813 415.976563 1425.557813 Z M 415.976563 1425.557813" transform="matrix(.1 0 0 -.1 0 191.13)" fill="#ab5cf2" stroke-width="6.727" stroke="#000" stroke-miterlimit="10" />
  <path d="M528.085938 779.7375L520.625 779.7375C503.359375 779.7375 489.257813 793.839062 489.257813 811.104687L489.257813 818.565625C489.257813 835.870312 503.359375 849.971875 520.625 849.971875L528.085938 849.971875C545.390625 849.971875 559.492188 835.870312 559.492188 818.565625L559.492188 811.104687C559.492188 793.839062 545.390625 779.7375 528.085938 779.7375zM1000.9375 1369.503125L993.4375 1369.503125C976.171875 1369.503125 962.03125 1383.604688 962.03125 1400.870313L962.03125 1408.33125C962.03125 1425.635938 976.171875 1439.7375 993.4375 1439.7375L1000.9375 1439.7375C1018.164063 1439.7375 1032.304688 1425.635938 1032.304688 1408.33125L1032.304688 1400.870313C1032.304688 1383.604688 1018.164063 1369.503125 1000.9375 1369.503125zM1439.6875 974.815625L1432.226563 974.815625C1414.921875 974.815625 1400.820313 988.917187 1400.820313 1006.221875L1400.820313 1013.682813C1400.820313 1030.948438 1414.921875 1045.089063 1432.226563 1045.089063L1439.6875 1045.089063C1456.953125 1045.089063 1471.054688 1030.948438 1471.054688 1013.682813L1471.054688 1006.221875C1471.054688 988.917187 1456.953125 974.815625 1439.6875 974.815625zM1264.765625 487.08125L1257.304688 487.08125C1240.039063 487.08125 1225.898438 501.182812 1225.898438 518.4875L1225.898438 525.948437C1225.898438 543.214062 1240.039063 557.315625 1257.304688 557.315625L1264.765625 557.315625C1282.03125 557.315625 1296.132813 543.214062 1296.132813 525.948437L1296.132813 518.4875C1296.132813 501.182812 1282.03125 487.08125 1264.765625 487.08125zM1998.046875 517.354687L1990.585938 517.354687C1973.320313 517.354687 1959.179688 531.45625 1959.179688 548.760937L1959.179688 556.221875C1959.179688 573.4875 1973.320313 587.589062 1990.585938 587.589062L1998.046875 587.589062C2015.3125 587.589062 2029.453125 573.4875 2029.453125 556.221875L2029.453125 548.760937C2029.453125 531.45625 2015.3125 517.354687 1998.046875 517.354687zM2093.359375 1425.557813L2085.898438 1425.557813C2068.59375 1425.557813 2054.492188 1439.659375 2054.492188 1456.964063L2054.492188 1464.425C2054.492188 1481.690625 2068.59375 1495.792188 2085.898438 1495.792188L2093.359375 1495.792188C2110.625 1495.792188 2124.765625 1481.690625 2124.765625 1464.425L2124.765625 1456.964063C2124.765625 1439.659375 2110.625 1425.557813 2093.359375 1425.557813zM2093.359375 1425.557813" transform="matrix(.1 0 0 -.1 0 191.13)" fill="#ab5cf2" stroke-width="4.485" stroke="#000" stroke-miterlimit="10" />
  <path d="M1815.273438 1203.565625L1807.8125 1203.565625C1790.546875 1203.565625 1776.445313 1217.667188 1776.445313 1234.932813L1776.445313 1242.39375C1776.445313 1259.698438 1790.546875 1273.8 1807.8125 1273.8L1815.273438 1273.8C1832.578125 1273.8 1846.679688 1259.698438 1846.679688 1242.39375L1846.679688 1234.932813C1846.679688 1217.667188 1832.578125 1203.565625 1815.273438 1203.565625zM1395.195313 1508.135938L1387.734375 1508.135938C1370.46875 1508.135938 1356.367188 1522.276563 1356.367188 1539.542188L1356.367188 1547.042188C1356.367188 1564.307813 1370.46875 1578.448438 1387.734375 1578.448438L1395.195313 1578.448438C1412.460938 1578.448438 1426.601563 1564.307813 1426.601563 1547.042188L1426.601563 1539.542188C1426.601563 1522.276563 1412.460938 1508.135938 1395.195313 1508.135938zM2001.40625 920.557812L1993.945313 920.557812C1976.679688 920.557812 1962.539063 934.698437 1962.539063 951.925L1962.539063 959.425C1962.539063 976.690625 1976.679688 990.83125 1993.945313 990.83125L2001.40625 990.83125C2018.671875 990.83125 2032.8125 976.690625 2032.8125 959.425L2032.8125 951.925C2032.8125 934.698437 2018.671875 920.557812 2001.40625 920.557812zM1603.359375 632.823437L1595.898438 632.823437C1578.632813 632.823437 1564.492188 646.964062 1564.492188 664.229687L1564.492188 671.690625C1564.492188 688.95625 1578.632813 703.096875 1595.898438 703.096875L1603.359375 703.096875C1620.664063 703.096875 1634.765625 688.95625 1634.765625 671.690625L1634.765625 664.229687C1634.765625 646.964062 1620.664063 632.823437 1603.359375 632.823437zM1076.40625 904.58125L1068.945313 904.58125C1051.640625 904.58125 1037.539063 918.682812 1037.539063 935.948437L1037.539063 943.409375C1037.539063 960.714062 1051.640625 974.815625 1068.945313 974.815625L1076.40625 974.815625C1093.671875 974.815625 1107.773438 960.714062 1107.773438 943.409375L1107.773438 935.948437C1107.773438 918.682812 1093.671875 904.58125 1076.40625 904.58125zM683.945313 1196.807813L676.484375 1196.807813C659.21875 1196.807813 645.117188 1210.948438 645.117188 1228.214063L645.117188 1235.675C645.117188 1252.940625 659.21875 1267.08125 676.484375 1267.08125L683.945313 1267.08125C701.210938 1267.08125 715.351563 1252.940625 715.351563 1235.675L715.351563 1228.214063C715.351563 1210.948438 701.210938 1196.807813 683.945313 1196.807813zM620.039063 464.659375L612.578125 464.659375C595.3125 464.659375 581.171875 478.760937 581.171875 496.065625L581.171875 503.526562C581.171875 520.792187 595.3125 534.89375 612.578125 534.89375L620.039063 534.89375C637.304688 534.89375 651.445313 520.792187 651.445313 503.526562L651.445313 496.065625C651.445313 478.760937 637.304688 464.659375 620.039063 464.659375zM620.039063 464.659375" transform="matrix(.1 0 0 -.1 0 191.13)" fill="#0f0" stroke-width="4.485" stroke="#000" stroke-miterlimit="10" />
  <path d="M4290.234375 1432.276563L4282.773438 1432.276563C4265.507813 1432.276563 4251.367188 1446.417188 4251.367188 1463.682813L4251.367188 1471.14375C4251.367188 1488.409375 4265.507813 1502.510938 4282.773438 1502.510938L4290.234375 1502.510938C4307.539063 1502.510938 4321.640625 1488.409375 4321.640625 1471.14375L4321.640625 1463.682813C4321.640625 1446.417188 4307.539063 1432.276563 4290.234375 1432.276563zM4196.796875 517.354687L4189.335938 517.354687C4172.03125 517.354687 4157.929688 531.45625 4157.929688 548.760937L4157.929688 556.221875C4157.929688 573.4875 4172.03125 587.589062 4189.335938 587.589062L4196.796875 587.589062C4214.0625 587.589062 4228.203125 573.4875 4228.203125 556.221875L4228.203125 548.760937C4228.203125 531.45625 4214.0625 517.354687 4196.796875 517.354687zM3639.921875 979.307812L3632.460938 979.307812C3615.195313 979.307812 3601.054688 993.409375 3601.054688 1010.714063L3601.054688 1018.175C3601.054688 1035.440625 3615.195313 1049.542188 3632.460938 1049.542188L3639.921875 1049.542188C3657.1875 1049.542188 3671.328125 1035.440625 3671.328125 1018.175L3671.328125 1010.714063C3671.328125 993.409375 3657.1875 979.307812 3639.921875 979.307812zM3206.40625 1376.221875L3198.90625 1376.221875C3181.640625 1376.221875 3167.5 1390.323438 3167.5 1407.628125L3167.5 1415.089063C3167.5 1432.354688 3181.640625 1446.45625 3198.90625 1446.45625L3206.40625 1446.45625C3223.632813 1446.45625 3237.773438 1432.354688 3237.773438 1415.089063L3237.773438 1407.628125C3237.773438 1390.323438 3223.632813 1376.221875 3206.40625 1376.221875zM3468.007813 482.198437L3460.546875 482.198437C3443.242188 482.198437 3429.140625 496.378125 3429.140625 513.604687L3429.140625 521.104687C3429.140625 538.370312 3443.242188 552.510937 3460.546875 552.510937L3468.007813 552.510937C3485.273438 552.510937 3499.375 538.370312 3499.375 521.104687L3499.375 513.604687C3499.375 496.378125 3485.273438 482.198437 3468.007813 482.198437zM2727.96875 781.964062L2720.507813 781.964062C2703.242188 781.964062 2689.101563 796.065625 2689.101563 813.370312L2689.101563 820.83125C2689.101563 838.096875 2703.242188 852.198437 2720.507813 852.198437L2727.96875 852.198437C2745.234375 852.198437 2759.375 838.096875 2759.375 820.83125L2759.375 813.370312C2759.375 796.065625 2745.234375 781.964062 2727.96875 781.964062zM2620.3125 1423.292188L2612.851563 1423.292188C2595.585938 1423.292188 2581.484375 1437.432813 2581.484375 1454.698438L2581.484375 1462.159375C2581.484375 1479.425 2595.585938 1493.565625 2612.851563 1493.565625L2620.3125 1493.565625C2637.617188 1493.565625 2651.71875 1479.425 2651.71875 1462.159375L2651.71875 1454.698438C2651.71875 1437.432813 2637.617188 1423.292188 2620.3125 1423.292188zM2620.3125 1423.292188" transform="matrix(.1 0 0 -.1 0 191.13)" fill="#ab5cf2" stroke-width="4.485" stroke="#000" stroke-miterlimit="10" />
  <path d="M3598.046875 1511.495313L3590.585938 1511.495313C3573.320313 1511.495313 3559.21875 1525.675 3559.21875 1542.901563L3559.21875 1550.401563C3559.21875 1567.667188 3573.320313 1581.807813 3590.585938 1581.807813L3598.046875 1581.807813C3615.3125 1581.807813 3629.453125 1567.667188 3629.453125 1550.401563L3629.453125 1542.901563C3629.453125 1525.675 3615.3125 1511.495313 3598.046875 1511.495313zM4017.382813 1206.534375L4009.921875 1206.534375C3992.65625 1206.534375 3978.554688 1220.675 3978.554688 1237.901563L3978.554688 1245.401563C3978.554688 1262.70625 3992.65625 1276.807813 4009.921875 1276.807813L4017.382813 1276.807813C4034.6875 1276.807813 4048.789063 1262.70625 4048.789063 1245.401563L4048.789063 1237.901563C4048.789063 1220.675 4034.6875 1206.534375 4017.382813 1206.534375zM4196.796875 920.557812L4189.335938 920.557812C4172.03125 920.557812 4157.929688 934.698437 4157.929688 951.925L4157.929688 959.425C4157.929688 976.690625 4172.03125 990.83125 4189.335938 990.83125L4196.796875 990.83125C4214.0625 990.83125 4228.203125 976.690625 4228.203125 959.425L4228.203125 951.925C4228.203125 934.698437 4214.0625 920.557812 4196.796875 920.557812zM3806.601563 632.432812L3799.140625 632.432812C3781.875 632.432812 3767.734375 646.6125 3767.734375 663.839062L3767.734375 671.339062C3767.734375 688.604687 3781.875 702.745312 3799.140625 702.745312L3806.601563 702.745312C3823.867188 702.745312 3838.007813 688.604687 3838.007813 671.339062L3838.007813 663.839062C3838.007813 646.6125 3823.867188 632.432812 3806.601563 632.432812zM3276.640625 899.307812L3269.179688 899.307812C3251.914063 899.307812 3237.773438 913.448437 3237.773438 930.714062L3237.773438 938.214062C3237.773438 955.479687 3251.914063 969.58125 3269.179688 969.58125L3276.640625 969.58125C3293.90625 969.58125 3308.046875 955.479687 3308.046875 938.214062L3308.046875 930.714062C3308.046875 913.448437 3293.90625 899.307812 3276.640625 899.307812zM2886.445313 1206.534375L2878.984375 1206.534375C2861.71875 1206.534375 2847.578125 1220.675 2847.578125 1237.901563L2847.578125 1245.401563C2847.578125 1262.70625 2861.71875 1276.807813 2878.984375 1276.807813L2886.445313 1276.807813C2903.710938 1276.807813 2917.851563 1262.70625 2917.851563 1245.401563L2917.851563 1237.901563C2917.851563 1220.675 2903.710938 1206.534375 2886.445313 1206.534375zM2816.210938 464.26875L2808.710938 464.26875C2791.445313 464.26875 2777.304688 478.409375 2777.304688 495.675L2777.304688 503.175C2777.304688 520.440625 2791.445313 534.542187 2808.710938 534.542187L2816.210938 534.542187C2833.4375 534.542187 2847.578125 520.440625 2847.578125 503.175L2847.578125 495.675C2847.578125 478.409375 2833.4375 464.26875 2816.210938 464.26875zM2816.210938 464.26875" transform="matrix(.1 0 0 -.1 0 191.13)" fill="#0f0" stroke-width="4.485" stroke="#000" stroke-miterlimit="10" />
  <path d="M 410.742188 1458.448438 L 479.335938 1379.151563" transform="matrix(.1 0 0 -.1 0 191.13)" fill="none" stroke-width="4.485" stroke="#000" stroke-miterlimit="10" />
  <path d="M 45.574219 53.289063 L 45.625 52.84375 L 47.820313 53.085938 L 47.902344 50.875 L 48.347656 50.890625 L 48.253906 53.582031 Z M 45.574219 53.289063" />
  <path d="M 996.054688 1416.964063 L 1096.5625 1416.964063" transform="matrix(.1 0 0 -.1 0 191.13)" fill="none" stroke-width="4.485" stroke="#000" stroke-miterlimit="10" />
  <path d="M 108.171875 51.269531 L 107.867188 50.941406 L 109.484375 49.433594 L 107.867188 47.929688 L 108.171875 47.601563 L 110.144531 49.433594 Z M 108.171875 51.269531" />
  <path d="M 1390.703125 1543.682813 L 1439.765625 1462.628125" transform="matrix(.1 0 0 -.1 0 191.13)" fill="none" stroke-width="4.485" stroke="#000" stroke-miterlimit="10" />
  <path d="M 141.640625 44.550781 L 141.761719 44.113281 L 143.890625 44.722656 L 144.339844 42.554688 L 144.777344 42.648438 L 144.230469 45.285156 Z M 141.640625 44.550781" />
  <path d="M 2083.632813 1462.940625 L 2004.492188 1400.870313" transform="matrix(.1 0 0 -.1 0 191.13)" fill="none" stroke-width="4.485" stroke="#000" stroke-miterlimit="10" />
  <path d="M 200.488281 48.679688 L 200.933594 48.75 L 200.585938 50.933594 L 202.789063 51.117188 L 202.75 51.566406 L 200.066406 51.339844 Z M 200.488281 48.679688" />
  <path d="M 1812.304688 1240.948438 L 1750.273438 1161.76875" transform="matrix(.1 0 0 -.1 0 191.13)" fill="none" stroke-width="4.485" stroke="#000" stroke-miterlimit="10" />
  <path d="M 174.5 72.648438 L 174.949219 72.613281 L 175.132813 74.816406 L 177.316406 74.46875 L 177.386719 74.914063 L 174.726563 75.335938 Z M 174.5 72.648438" />
  <path d="M 1431.09375 1016.690625 L 1335 1023.096875" transform="matrix(.1 0 0 -.1 0 191.13)" fill="none" stroke-width="4.485" stroke="#000" stroke-miterlimit="10" />
  <path d="M 135.109375 87.089844 L 135.390625 87.441406 L 133.675781 88.835938 L 135.191406 90.441406 L 134.863281 90.75 L 133.019531 88.789063 Z M 135.109375 87.089844" />
  <path d="M 1070.039063 940.440625 L 1129.804688 1016.221875" transform="matrix(.1 0 0 -.1 0 191.13)" fill="none" stroke-width="4.485" stroke="#000" stroke-miterlimit="10" />
  <path d="M 113.5 91.808594 L 113.054688 91.847656 L 112.878906 89.644531 L 110.691406 89.984375 L 110.621094 89.539063 L 113.285156 89.125 Z M 113.5 91.808594" />
  <path d="M 677.617188 1240.948438 L 778.320313 1213.057813" transform="matrix(.1 0 0 -.1 0 191.13)" fill="none" stroke-width="4.485" stroke="#000" stroke-miterlimit="10" />
  <path d="M 75.910156 71.195313 L 75.703125 70.796875 L 77.667969 69.777344 L 76.507813 67.894531 L 76.890625 67.660156 L 78.300781 69.953125 Z M 75.910156 71.195313" />
  <path d="M 522.890625 821.573437 L 608.28125 866.417187" transform="matrix(.1 0 0 -.1 0 191.13)" fill="none" stroke-width="4.485" stroke="#000" stroke-miterlimit="10" />
  <path d="M 60.363281 106.800781 L 59.941406 106.65625 L 60.675781 104.570313 L 58.542969 103.988281 L 58.660156 103.554688 L 61.257813 104.261719 Z M 60.363281 106.800781" />
  <path d="M 610.351563 500.909375 L 650.859375 586.221875" transform="matrix(.1 0 0 -.1 0 191.13)" fill="none" stroke-width="4.485" stroke="#000" stroke-miterlimit="10" />
  <path d="M 66.105469 134.636719 L 65.675781 134.773438 L 65.011719 132.664063 L 62.957031 133.480469 L 62.792969 133.0625 L 65.292969 132.070313 Z M 66.105469 134.636719" />
  <path d="M 1262.890625 521.104687 L 1211.523438 608.839062" transform="matrix(.1 0 0 -.1 0 191.13)" fill="none" stroke-width="4.485" stroke="#000" stroke-miterlimit="10" />
  <path d="M 123.488281 130.605469 L 123.355469 131.03125 L 121.242188 130.394531 L 120.761719 132.550781 L 120.324219 132.453125 L 120.90625 129.824219 Z M 123.488281 130.605469" />
  <path d="M 1991.71875 545.753125 L 1891.054688 566.065625" transform="matrix(.1 0 0 -.1 0 191.13)" fill="none" stroke-width="4.485" stroke="#000" stroke-miterlimit="10" />
  <path d="M 190.925781 133.019531 L 191.164063 133.398438 L 189.277344 134.554688 L 190.566406 136.351563 L 190.199219 136.613281 L 188.632813 134.421875 Z M 190.925781 133.019531" />
  <path d="M 1998.4375 955.675 L 2040.117188 866.378125" transform="matrix(.1 0 0 -.1 0 191.13)" fill="none" stroke-width="4.485" stroke="#000" stroke-miterlimit="10" />
  <path d="M 201.722656 103.921875 L 201.890625 103.507813 L 203.9375 104.339844 L 204.613281 102.234375 L 205.042969 102.375 L 204.214844 104.933594 Z M 201.722656 103.921875" />
  <path d="M 1599.257813 664.620312 L 1676.09375 722.276562" transform="matrix(.1 0 0 -.1 0 191.13)" fill="none" stroke-width="4.485" stroke="#000" stroke-miterlimit="10" />
  <path d="M 167.523438 121.265625 L 167.082031 121.183594 L 167.476563 119.011719 L 165.273438 118.777344 L 165.324219 118.328125 L 168 118.613281 Z M 167.523438 121.265625" />
  <path d="M 2612.851563 1453.95625 L 2728.4375 1327.471875" transform="matrix(.1 0 0 -.1 0 191.13)" fill="none" stroke-width="4.485" stroke="#000" stroke-miterlimit="10" />
  <path d="M 270.488281 58.523438 L 270.523438 58.074219 L 272.726563 58.257813 L 272.746094 56.039063 L 273.195313 56.050781 L 273.171875 58.738281 Z M 270.488281 58.523438" />
  <path d="M 3213.867188 1416.964063 L 3388.398438 1407.159375" transform="matrix(.1 0 0 -.1 0 191.13)" fill="none" stroke-width="4.485" stroke="#000" stroke-miterlimit="10" />
  <path d="M 337.253906 52.164063 L 336.96875 51.820313 L 338.667969 50.40625 L 337.136719 48.8125 L 337.457031 48.5 L 339.324219 50.441406 Z M 337.253906 52.164063" />
  <path d="M 3599.570313 1539.190625 L 3704.726563 1363.95625" transform="matrix(.1 0 0 -.1 0 191.13)" fill="none" stroke-width="4.485" stroke="#000" stroke-miterlimit="10" />
  <path d="M 368.128906 54.40625 L 368.257813 53.976563 L 370.378906 54.585938 L 370.839844 52.425781 L 371.277344 52.515625 L 370.71875 55.152344 Z M 368.128906 54.40625" />
  <path d="M 4283.515625 1465.167188 L 4152.851563 1367.198438" transform="matrix(.1 0 0 -.1 0 191.13)" fill="none" stroke-width="4.485" stroke="#000" stroke-miterlimit="10" />
  <path d="M 415.371094 52.054688 L 415.8125 52.132813 L 415.421875 54.308594 L 417.621094 54.542969 L 417.574219 54.988281 L 414.894531 54.703125 Z M 415.371094 52.054688" />
  <path d="M 4007.695313 1236.45625 L 3903.007813 1099.034375" transform="matrix(.1 0 0 -.1 0 191.13)" fill="none" stroke-width="4.485" stroke="#000" stroke-miterlimit="10" />
  <path d="M 389.742188 78.933594 L 390.1875 78.890625 L 390.402344 81.089844 L 392.585938 80.710938 L 392.65625 81.15625 L 390.003906 81.613281 Z M 389.742188 78.933594" />
  <path d="M 3633.203125 1020.05 L 3460.898438 1029.854688" transform="matrix(.1 0 0 -.1 0 191.13)" fill="none" stroke-width="4.485" stroke="#000" stroke-miterlimit="10" />
  <path d="M 347.679688 86.398438 L 347.964844 86.742188 L 346.261719 88.15625 L 347.792969 89.75 L 347.46875 90.058594 L 345.605469 88.117188 Z M 347.679688 86.398438" />
  <path d="M 3274.414063 935.948437 L 3376.953125 1077.745313" transform="matrix(.1 0 0 -.1 0 191.13)" fill="none" stroke-width="4.485" stroke="#000" stroke-miterlimit="10" />
  <path d="M 338.308594 85.632813 L 337.863281 85.6875 L 337.59375 83.496094 L 335.425781 83.921875 L 335.339844 83.484375 L 337.980469 82.957031 Z M 338.308594 85.632813" />
  <path d="M 2884.21875 1236.45625 L 3054.375 1200.440625" transform="matrix(.1 0 0 -.1 0 191.13)" fill="none" stroke-width="4.485" stroke="#000" stroke-miterlimit="10" />
  <path d="M 303.605469 72.574219 L 303.371094 72.1875 L 305.265625 71.050781 L 303.996094 69.242188 L 304.363281 68.984375 L 305.910156 71.183594 Z M 303.605469 72.574219" />
  <path d="M 2729.492188 819.346875 L 2880 906.378125" transform="matrix(.1 0 0 -.1 0 191.13)" fill="none" stroke-width="4.485" stroke="#000" stroke-miterlimit="10" />
  <path d="M 287.632813 102.824219 L 287.203125 102.691406 L 287.851563 100.578125 L 285.695313 100.085938 L 285.796875 99.648438 L 288.421875 100.25 Z M 287.632813 102.824219" />
  <path d="M 2806.835938 500.909375 L 2893.046875 653.64375" transform="matrix(.1 0 0 -.1 0 191.13)" fill="none" stroke-width="4.485" stroke="#000" stroke-miterlimit="10" />
  <path d="M 290.167969 127.960938 L 289.734375 128.066406 L 289.21875 125.914063 L 287.109375 126.585938 L 286.976563 126.15625 L 289.542969 125.339844 Z M 290.167969 127.960938" />
  <path d="M 3473.984375 509.89375 L 3384.492188 662.667187" transform="matrix(.1 0 0 -.1 0 191.13)" fill="none" stroke-width="4.485" stroke="#000" stroke-miterlimit="10" />
  <path d="M 340.78125 125.21875 L 340.652344 125.648438 L 338.535156 125.011719 L 338.058594 127.167969 L 337.617188 127.070313 L 338.203125 124.445313 Z M 340.78125 125.21875" />
  <path d="M 3803.632813 664.620312 L 3949.882813 765.010937" transform="matrix(.1 0 0 -.1 0 191.13)" fill="none" stroke-width="4.485" stroke="#000" stroke-miterlimit="10" />
  <path d="M 394.796875 116.980469 L 394.359375 116.886719 L 394.84375 114.726563 L 392.65625 114.402344 L 392.722656 113.957031 L 395.386719 114.351563 Z M 394.796875 116.980469" />
  <path d="M 4198.28125 556.417187 L 4016.992188 578.8" transform="matrix(.1 0 0 -.1 0 191.13)" fill="none" stroke-width="4.485" stroke="#000" stroke-miterlimit="10" />
  <path d="M 403.402344 131.613281 L 403.664063 131.972656 L 401.871094 133.269531 L 403.296875 134.964844 L 402.953125 135.253906 L 401.21875 133.191406 Z M 403.402344 131.613281" />
  <path d="M 4198.28125 955.675 L 4283.398438 801.14375" transform="matrix(.1 0 0 -.1 0 191.13)" fill="none" stroke-width="4.485" stroke="#000" stroke-miterlimit="10" />
  <path d="M426.019531 110.597656L426.15625 110.167969 428.257813 110.863281 428.796875 108.714844 429.230469 108.828125 428.574219 111.4375zM86.9375 168.453125L86.578125 168.453125C86.144531 169.75 85.964844 170.160156 84.472656 170.160156L83.957031 170.160156C83.300781 170.160156 83.109375 170.0625 83.109375 169.570313L83.109375 164.726563C83.109375 163.859375 83.300781 163.632813 84.203125 163.632813L84.203125 163.300781 81.070313 163.300781 81.070313 163.632813C81.960938 163.632813 82.085938 163.859375 82.085938 164.71875L82.085938 169.257813C82.085938 170.128906 81.960938 170.296875 81.070313 170.296875L81.070313 170.628906 86.601563 170.628906 86.9375 168.453125M90.078125 165.21875C88.570313 165.21875 87.578125 166.3125 87.578125 167.929688 87.578125 169.738281 88.515625 170.742188 90.078125 170.742188 91.527344 170.742188 92.554688 169.757813 92.554688 167.886719 92.554688 166.234375 91.605469 165.21875 90.078125 165.21875zM90.035156 165.640625C91.027344 165.640625 91.527344 166.570313 91.527344 167.941406 91.527344 169.757813 91.039063 170.296875 90.125 170.296875 89.164063 170.304688 88.617188 169.558594 88.617188 167.785156 88.617188 166.355469 89.1875 165.640625 90.035156 165.640625M101.402344 165.351563L99.46875 165.351563 99.46875 165.675781C99.882813 165.675781 100.09375 165.742188 100.09375 165.953125 100.09375 166.144531 100.039063 166.300781 100.027344 166.355469L99.148438 168.855469 98.925781 169.503906 98.859375 169.503906 98.65625 168.855469 97.753906 166.414063C97.695313 166.246094 97.652344 166.089844 97.652344 165.953125 97.652344 165.777344 97.785156 165.675781 98.210938 165.675781L98.210938 165.351563 95.878906 165.351563 95.878906 165.675781C96.371094 165.675781 96.539063 165.765625 96.804688 166.492188L96.929688 166.824219 96.125 168.855469 95.890625 169.503906 95.8125 169.503906 95.609375 168.855469 94.640625 166.390625C94.574219 166.222656 94.515625 166.101563 94.515625 165.953125 94.515625 165.777344 94.664063 165.675781 95.109375 165.675781L95.109375 165.351563 92.710938 165.351563 92.710938 165.675781C93.203125 165.675781 93.367188 165.796875 93.660156 166.492188L95.332031 170.695313 95.84375 170.695313 97.148438 167.449219 97.195313 167.449219 98.378906 170.695313 98.914063 170.695313 100.574219 166.414063C100.796875 165.832031 100.964844 165.675781 101.402344 165.675781L101.402344 165.351563M105.929688 169.035156C105.574219 169.503906 105.226563 169.90625 104.324219 169.90625 103.429688 169.90625 102.582031 169.203125 102.582031 167.664063L106.109375 167.664063C106.054688 166.101563 105.25 165.21875 104.03125 165.21875 102.726563 165.21875 101.679688 166.109375 101.679688 167.976563 101.679688 169.769531 102.71875 170.742188 104.054688 170.742188 105.203125 170.742188 105.742188 170.039063 106.140625 169.191406zM102.570313 167.25C102.660156 166.210938 103.109375 165.664063 103.867188 165.664063 104.65625 165.664063 105.027344 166.421875 105.058594 167.25L102.570313 167.25M108.542969 165.25L108.273438 165.25 106.890625 165.585938 106.890625 165.898438C106.890625 165.898438 107.011719 165.875 107.234375 165.875 107.636719 165.875 107.636719 166.078125 107.636719 166.480469L107.636719 169.546875C107.636719 170.171875 107.558594 170.304688 106.824219 170.304688L106.824219 170.628906 109.613281 170.628906 109.613281 170.304688C108.777344 170.304688 108.5625 170.195313 108.5625 169.492188L108.5625 166.949219C108.832031 166.5 109.1875 166.03125 109.445313 166.03125 109.578125 166.03125 109.800781 166.414063 110.171875 166.414063 110.414063 166.414063 110.660156 166.234375 110.660156 165.8125 110.660156 165.429688 110.449219 165.1875 110.015625 165.1875 109.476563 165.1875 109.144531 165.578125 108.574219 166.402344L108.542969 166.402344 108.542969 165.25M116.667969 169.625C116.390625 169.9375 116.246094 170.082031 115.886719 170.082031 115.453125 170.082031 115.351563 169.816406 115.351563 169.023438L115.351563 165.820313 116.613281 165.820313 116.613281 165.351563 115.351563 165.351563 115.363281 163.824219 115.074219 163.824219C114.671875 164.773438 114.339844 165.242188 113.8125 165.5625L113.8125 165.820313 114.425781 165.820313 114.425781 169.335938C114.425781 170.339844 114.75 170.742188 115.496094 170.742188 116.210938 170.742188 116.445313 170.40625 116.882813 169.804688L116.667969 169.625M121.429688 169.035156C121.074219 169.503906 120.726563 169.90625 119.824219 169.90625 118.929688 169.90625 118.082031 169.203125 118.082031 167.664063L121.609375 167.664063C121.554688 166.101563 120.75 165.21875 119.53125 165.21875 118.226563 165.21875 117.179688 166.109375 117.179688 167.976563 117.179688 169.769531 118.21875 170.742188 119.554688 170.742188 120.703125 170.742188 121.242188 170.039063 121.640625 169.191406zM118.070313 167.25C118.160156 166.210938 118.609375 165.664063 119.367188 165.664063 120.15625 165.664063 120.527344 166.421875 120.558594 167.25L118.070313 167.25M124.0625 166.648438C124.386719 166.34375 124.878906 165.933594 125.457031 165.933594 125.972656 165.933594 126.351563 166.179688 126.351563 167.125L126.351563 169.335938C126.351563 170.117188 126.285156 170.304688 125.492188 170.304688L125.492188 170.628906 128.136719 170.628906 128.136719 170.304688C127.332031 170.304688 127.277344 170.105469 127.277344 169.335938L127.277344 166.625C127.644531 166.3125 128.101563 165.933594 128.558594 165.933594 129.085938 165.933594 129.519531 166.179688 129.519531 167.195313L129.519531 169.335938C129.519531 170.015625 129.484375 170.304688 128.726563 170.304688L128.726563 170.628906 131.246094 170.628906 131.246094 170.304688C130.476563 170.304688 130.445313 170.039063 130.445313 169.335938L130.445313 167.058594C130.445313 165.710938 129.878906 165.21875 129.007813 165.21875 128.414063 165.21875 127.84375 165.542969 127.234375 166.144531L127.1875 166.144531C126.964844 165.609375 126.585938 165.21875 125.949219 165.21875 125.191406 165.21875 124.679688 165.632813 124.074219 166.15625L124.03125 166.15625 124.03125 165.25 123.761719 165.25 122.367188 165.578125 122.367188 165.898438C122.367188 165.898438 122.503906 165.875 122.667969 165.875 122.980469 165.875 123.136719 165.976563 123.136719 166.378906L123.136719 169.503906C123.136719 170.171875 123.058594 170.304688 122.355469 170.304688L122.355469 170.628906 124.898438 170.628906 124.898438 170.304688C124.210938 170.304688 124.0625 170.171875 124.0625 169.546875L124.0625 166.648438M133.5625 165.25L133.285156 165.25 131.878906 165.5625 131.878906 165.886719C131.878906 165.886719 132.089844 165.867188 132.234375 165.867188 132.605469 165.867188 132.660156 166.011719 132.660156 166.433594L132.660156 171.957031C132.660156 172.582031 132.546875 172.773438 131.84375 172.773438L131.84375 173.085938 134.667969 173.085938 134.667969 172.761719C133.796875 172.761719 133.585938 172.617188 133.585938 171.890625L133.585938 170.429688 133.628906 170.429688C133.953125 170.652344 134.332031 170.742188 134.757813 170.742188 136.09375 170.742188 137.199219 169.613281 137.199219 167.71875 137.199219 166.257813 136.429688 165.21875 135.328125 165.21875 134.667969 165.21875 134.132813 165.5625 133.597656 166.1875L133.5625 166.1875zM133.585938 166.65625C133.796875 166.378906 134.277344 165.976563 134.867188 165.976563 135.695313 165.976563 136.1875 166.625 136.1875 168.03125 136.1875 169.582031 135.59375 170.304688 134.8125 170.304688 134.1875 170.304688 133.796875 169.804688 133.585938 169.570313L133.585938 166.65625M142.230469 169.035156C141.871094 169.503906 141.527344 169.90625 140.621094 169.90625 139.730469 169.90625 138.882813 169.203125 138.882813 167.664063L142.40625 167.664063C142.351563 166.101563 141.550781 165.21875 140.332031 165.21875 139.027344 165.21875 137.980469 166.109375 137.980469 167.976563 137.980469 169.769531 139.015625 170.742188 140.355469 170.742188 141.503906 170.742188 142.039063 170.039063 142.441406 169.191406zM138.871094 167.25C138.960938 166.210938 139.40625 165.664063 140.164063 165.664063 140.957031 165.664063 141.328125 166.421875 141.359375 167.25L138.871094 167.25M144.84375 165.25L144.574219 165.25 143.191406 165.585938 143.191406 165.898438C143.191406 165.898438 143.3125 165.875 143.535156 165.875 143.9375 165.875 143.9375 166.078125 143.9375 166.480469L143.9375 169.546875C143.9375 170.171875 143.859375 170.304688 143.121094 170.304688L143.121094 170.628906 145.914063 170.628906 145.914063 170.304688C145.078125 170.304688 144.863281 170.195313 144.863281 169.492188L144.863281 166.949219C145.132813 166.5 145.488281 166.03125 145.746094 166.03125 145.878906 166.03125 146.101563 166.414063 146.46875 166.414063 146.714844 166.414063 146.960938 166.234375 146.960938 165.8125 146.960938 165.429688 146.75 165.1875 146.3125 165.1875 145.777344 165.1875 145.445313 165.578125 144.875 166.402344L144.84375 166.402344 144.84375 165.25M150.335938 169.9375C150.402344 170.429688 150.515625 170.6875 151.007813 170.6875 151.574219 170.6875 151.84375 170.453125 152.210938 169.914063L152.042969 169.738281C151.886719 169.90625 151.730469 170.015625 151.519531 170.015625 151.285156 170.015625 151.183594 169.925781 151.183594 169.46875L151.183594 166.9375C151.183594 165.777344 150.726563 165.21875 149.511719 165.21875 148.296875 165.21875 147.546875 165.820313 147.546875 166.445313 147.546875 166.8125 147.792969 166.980469 148.015625 166.980469 148.328125 166.980469 148.507813 166.8125 148.507813 166.46875 148.507813 165.796875 148.617188 165.5625 149.253906 165.5625 149.921875 165.5625 150.257813 165.933594 150.257813 166.902344L150.257813 167.394531C149.296875 167.695313 147.324219 167.984375 147.324219 169.457031 147.324219 170.171875 147.792969 170.707031 148.652344 170.707031 149.367188 170.707031 149.765625 170.394531 150.292969 169.9375zM150.257813 169.601563C149.878906 169.914063 149.476563 170.09375 149.109375 170.09375 148.628906 170.09375 148.304688 169.75 148.304688 169.191406 148.304688 168.320313 149.242188 168.019531 150.257813 167.761719L150.257813 169.601563M155.570313 169.625C155.289063 169.9375 155.144531 170.082031 154.789063 170.082031 154.351563 170.082031 154.253906 169.816406 154.253906 169.023438L154.253906 165.820313 155.511719 165.820313 155.511719 165.351563 154.253906 165.351563 154.265625 163.824219 153.972656 163.824219C153.570313 164.773438 153.238281 165.242188 152.714844 165.5625L152.714844 165.820313 153.328125 165.820313 153.328125 169.335938C153.328125 170.339844 153.648438 170.742188 154.398438 170.742188 155.109375 170.742188 155.34375 170.40625 155.78125 169.804688L155.570313 169.625M161.824219 170.128906L161.714844 170.128906C161.179688 170.128906 161.042969 170.050781 161.042969 169.390625L161.042969 165.296875 160.773438 165.296875 159.214844 165.464844 159.214844 165.777344C159.929688 165.777344 160.117188 165.832031 160.117188 166.421875L160.117188 169.359375C159.671875 169.75 159.3125 170.027344 158.746094 170.027344 158.164063 170.027344 157.742188 169.691406 157.742188 168.554688L157.742188 165.296875 157.496094 165.296875 156.054688 165.464844 156.054688 165.777344C156.660156 165.789063 156.816406 165.832031 156.816406 166.433594L156.816406 168.699219C156.816406 170.21875 157.351563 170.742188 158.277344 170.742188 158.992188 170.742188 159.515625 170.40625 160.105469 169.828125L160.164063 169.828125 160.164063 170.6875 160.40625 170.6875 161.824219 170.429688 161.824219 170.128906M164.242188 165.25L163.972656 165.25 162.589844 165.585938 162.589844 165.898438C162.589844 165.898438 162.714844 165.875 162.9375 165.875 163.339844 165.875 163.339844 166.078125 163.339844 166.480469L163.339844 169.546875C163.339844 170.171875 163.257813 170.304688 162.523438 170.304688L162.523438 170.628906 165.3125 170.628906 165.3125 170.304688C164.476563 170.304688 164.265625 170.195313 164.265625 169.492188L164.265625 166.949219C164.53125 166.5 164.890625 166.03125 165.144531 166.03125 165.28125 166.03125 165.503906 166.414063 165.871094 166.414063 166.117188 166.414063 166.359375 166.234375 166.359375 165.8125 166.359375 165.429688 166.148438 165.1875 165.714844 165.1875 165.179688 165.1875 164.84375 165.578125 164.273438 166.402344L164.242188 166.402344 164.242188 165.25M170.929688 169.035156C170.574219 169.503906 170.226563 169.90625 169.324219 169.90625 168.429688 169.90625 167.582031 169.203125 167.582031 167.664063L171.109375 167.664063C171.054688 166.101563 170.25 165.21875 169.03125 165.21875 167.726563 165.21875 166.679688 166.109375 166.679688 167.976563 166.679688 169.769531 167.71875 170.742188 169.054688 170.742188 170.203125 170.742188 170.742188 170.039063 171.140625 169.191406zM167.570313 167.25C167.660156 166.210938 168.109375 165.664063 168.867188 165.664063 169.65625 165.664063 170.027344 166.421875 170.058594 167.25L167.570313 167.25M299.511719 164.972656C299.511719 164.101563 299.542969 163.835938 300.601563 163.835938L300.601563 163.5 297.402344 163.5 297.402344 163.835938C298.429688 163.835938 298.484375 164.101563 298.484375 164.972656L298.484375 169.367188C298.484375 170.359375 298.40625 170.496094 297.402344 170.496094L297.402344 170.828125 300.601563 170.828125 300.601563 170.496094C299.601563 170.496094 299.511719 170.351563 299.511719 169.367188L299.511719 167.28125 303.167969 167.28125 303.167969 169.367188C303.167969 170.339844 303.078125 170.496094 302.089844 170.496094L302.089844 170.828125 305.277344 170.828125 305.277344 170.496094C304.261719 170.496094 304.183594 170.339844 304.183594 169.367188L304.183594 164.972656C304.183594 164.089844 304.21875 163.835938 305.277344 163.835938L305.277344 163.5 302.089844 163.5 302.089844 163.835938C303.113281 163.835938 303.167969 164.101563 303.167969 164.972656L303.167969 166.847656 299.511719 166.847656 299.511719 164.972656M307.316406 163.097656C306.925781 163.097656 306.679688 163.390625 306.679688 163.722656 306.679688 164.070313 306.9375 164.359375 307.316406 164.359375 307.707031 164.359375 307.953125 164.070313 307.953125 163.722656 307.953125 163.390625 307.707031 163.097656 307.316406 163.097656zM308.566406 170.515625C307.820313 170.515625 307.765625 170.351563 307.765625 169.703125L307.765625 165.453125 307.472656 165.453125 306.070313 165.765625 306.070313 166.085938C306.070313 166.085938 306.191406 166.066406 306.347656 166.066406 306.671875 166.066406 306.839844 166.109375 306.839844 166.589844L306.839844 169.703125C306.839844 170.339844 306.804688 170.515625 306.054688 170.515625L306.054688 170.828125 308.566406 170.828125 308.566406 170.515625M310.328125 168.777344C309.804688 169.179688 309.414063 169.648438 309.414063 170.046875 309.414063 170.359375 309.660156 170.664063 310.039063 170.851563L310.039063 170.898438C309.4375 171.476563 309.132813 171.855469 309.132813 172.226563 309.132813 172.835938 309.570313 173.453125 311.03125 173.453125 312.4375 173.453125 314.089844 172.9375 314.089844 171.445313 314.089844 170.160156 313.015625 170.117188 311.609375 170.117188 310.585938 170.117188 310.296875 170.003906 310.296875 169.667969 310.296875 169.480469 310.472656 169.078125 310.585938 168.921875 310.875 169.023438 311.1875 169.089844 311.542969 169.089844 312.714844 169.089844 313.519531 168.429688 313.519531 167.394531 313.519531 166.835938 313.273438 166.46875 313.117188 166.242188L313.117188 166.1875 314.164063 166.222656 314.164063 165.621094 312.726563 165.699219C312.726563 165.699219 312.226563 165.417969 311.488281 165.417969 310.304688 165.417969 309.46875 166.121094 309.46875 167.238281 309.46875 167.960938 309.792969 168.441406 310.328125 168.753906zM311.410156 165.820313C312.121094 165.820313 312.527344 166.421875 312.527344 167.328125 312.527344 168.386719 312.113281 168.699219 311.554688 168.699219 310.828125 168.699219 310.449219 168.152344 310.449219 167.191406 310.449219 166.257813 310.828125 165.820313 311.410156 165.820313zM310.316406 170.941406C310.472656 170.941406 310.683594 170.953125 311.578125 170.964844 312.324219 170.976563 313.519531 170.953125 313.519531 171.757813 313.519531 172.234375 312.992188 172.816406 311.679688 172.816406 310.539063 172.816406 310.003906 172.492188 310.003906 171.84375 310.003906 171.609375 310.082031 171.355469 310.316406 170.941406M316.34375 166.824219C316.886719 166.320313 317.289063 166.132813 317.726563 166.132813 318.628906 166.132813 318.753906 166.902344 318.753906 167.816406L318.753906 169.746094C318.753906 170.28125 318.707031 170.507813 317.9375 170.507813L317.9375 170.828125 320.503906 170.828125 320.503906 170.507813C319.800781 170.507813 319.679688 170.292969 319.679688 169.703125L319.679688 167.484375C319.679688 166.570313 319.464844 165.417969 318.183594 165.417969 317.589844 165.417969 317.078125 165.675781 316.375 166.335938L316.34375 166.335938 316.34375 162.953125 316.039063 162.953125 314.546875 163.34375 314.546875 163.65625C314.546875 163.65625 314.691406 163.632813 314.867188 163.632813 315.171875 163.632813 315.414063 163.6875 315.414063 164.078125L315.414063 169.792969C315.414063 170.417969 315.214844 170.507813 314.632813 170.507813L314.632813 170.828125 317.167969 170.828125 317.167969 170.507813C316.398438 170.507813 316.34375 170.328125 316.34375 169.746094L316.34375 166.824219M325.429688 169.234375C325.074219 169.703125 324.726563 170.105469 323.824219 170.105469 322.929688 170.105469 322.082031 169.402344 322.082031 167.863281L325.609375 167.863281C325.554688 166.300781 324.75 165.417969 323.53125 165.417969 322.226563 165.417969 321.179688 166.3125 321.179688 168.175781 321.179688 169.96875 322.21875 170.941406 323.554688 170.941406 324.703125 170.941406 325.242188 170.238281 325.640625 169.390625zM322.070313 167.449219C322.160156 166.414063 322.609375 165.867188 323.367188 165.867188 324.15625 165.867188 324.527344 166.625 324.558594 167.449219L322.070313 167.449219M328.042969 165.453125L327.773438 165.453125 326.390625 165.789063 326.390625 166.101563C326.390625 166.101563 326.511719 166.078125 326.734375 166.078125 327.136719 166.078125 327.136719 166.277344 327.136719 166.679688L327.136719 169.746094C327.136719 170.371094 327.058594 170.507813 326.324219 170.507813L326.324219 170.828125 329.113281 170.828125 329.113281 170.507813C328.277344 170.507813 328.0625 170.394531 328.0625 169.691406L328.0625 167.148438C328.332031 166.703125 328.6875 166.234375 328.945313 166.234375 329.078125 166.234375 329.300781 166.613281 329.671875 166.613281 329.914063 166.613281 330.160156 166.433594 330.160156 166.011719 330.160156 165.632813 329.949219 165.386719 329.515625 165.386719 328.976563 165.386719 328.644531 165.777344 328.074219 166.601563L328.042969 166.601563 328.042969 165.453125M336.167969 169.824219C335.890625 170.136719 335.746094 170.28125 335.386719 170.28125 334.953125 170.28125 334.851563 170.015625 334.851563 169.222656L334.851563 166.023438 336.113281 166.023438 336.113281 165.554688 334.851563 165.554688 334.863281 164.023438 334.574219 164.023438C334.171875 164.972656 333.839844 165.441406 333.3125 165.765625L333.3125 166.023438 333.925781 166.023438 333.925781 169.535156C333.925781 170.539063 334.25 170.941406 334.996094 170.941406 335.710938 170.941406 335.945313 170.605469 336.382813 170.003906L336.167969 169.824219M340.929688 169.234375C340.574219 169.703125 340.226563 170.105469 339.324219 170.105469 338.429688 170.105469 337.582031 169.402344 337.582031 167.863281L341.109375 167.863281C341.054688 166.300781 340.25 165.417969 339.03125 165.417969 337.726563 165.417969 336.679688 166.3125 336.679688 168.175781 336.679688 169.96875 337.71875 170.941406 339.054688 170.941406 340.203125 170.941406 340.742188 170.238281 341.140625 169.390625zM337.570313 167.449219C337.660156 166.414063 338.109375 165.867188 338.867188 165.867188 339.65625 165.867188 340.027344 166.625 340.058594 167.449219L337.570313 167.449219M343.5625 166.847656C343.886719 166.546875 344.378906 166.132813 344.957031 166.132813 345.472656 166.132813 345.851563 166.378906 345.851563 167.328125L345.851563 169.535156C345.851563 170.316406 345.785156 170.507813 344.992188 170.507813L344.992188 170.828125 347.636719 170.828125 347.636719 170.507813C346.832031 170.507813 346.777344 170.304688 346.777344 169.535156L346.777344 166.824219C347.144531 166.511719 347.601563 166.132813 348.058594 166.132813 348.585938 166.132813 349.019531 166.378906 349.019531 167.394531L349.019531 169.535156C349.019531 170.214844 348.984375 170.507813 348.226563 170.507813L348.226563 170.828125 350.746094 170.828125 350.746094 170.507813C349.976563 170.507813 349.945313 170.238281 349.945313 169.535156L349.945313 167.257813C349.945313 165.910156 349.378906 165.417969 348.507813 165.417969 347.914063 165.417969 347.34375 165.742188 346.734375 166.34375L346.6875 166.34375C346.464844 165.808594 346.085938 165.417969 345.449219 165.417969 344.691406 165.417969 344.179688 165.832031 343.574219 166.355469L343.53125 166.355469 343.53125 165.453125 343.261719 165.453125 341.867188 165.777344 341.867188 166.101563C341.867188 166.101563 342.003906 166.078125 342.167969 166.078125 342.480469 166.078125 342.636719 166.179688 342.636719 166.578125L342.636719 169.703125C342.636719 170.371094 342.558594 170.507813 341.855469 170.507813L341.855469 170.828125 344.398438 170.828125 344.398438 170.507813C343.710938 170.507813 343.5625 170.371094 343.5625 169.746094L343.5625 166.847656M353.0625 165.453125L352.785156 165.453125 351.378906 165.765625 351.378906 166.085938C351.378906 166.085938 351.589844 166.066406 351.734375 166.066406 352.105469 166.066406 352.160156 166.210938 352.160156 166.632813L352.160156 172.15625C352.160156 172.78125 352.046875 172.972656 351.34375 172.972656L351.34375 173.285156 354.167969 173.285156 354.167969 172.960938C353.296875 172.960938 353.085938 172.816406 353.085938 172.089844L353.085938 170.628906 353.128906 170.628906C353.453125 170.851563 353.832031 170.941406 354.257813 170.941406 355.59375 170.941406 356.699219 169.8125 356.699219 167.917969 356.699219 166.457031 355.929688 165.417969 354.828125 165.417969 354.167969 165.417969 353.632813 165.765625 353.097656 166.390625L353.0625 166.390625zM353.085938 166.859375C353.296875 166.578125 353.777344 166.179688 354.367188 166.179688 355.195313 166.179688 355.6875 166.824219 355.6875 168.230469 355.6875 169.78125 355.09375 170.507813 354.3125 170.507813 353.6875 170.507813 353.296875 170.003906 353.085938 169.769531L353.085938 166.859375M361.730469 169.234375C361.371094 169.703125 361.027344 170.105469 360.121094 170.105469 359.230469 170.105469 358.382813 169.402344 358.382813 167.863281L361.90625 167.863281C361.851563 166.300781 361.050781 165.417969 359.832031 165.417969 358.527344 165.417969 357.480469 166.3125 357.480469 168.175781 357.480469 169.96875 358.515625 170.941406 359.855469 170.941406 361.003906 170.941406 361.539063 170.238281 361.941406 169.390625zM358.371094 167.449219C358.460938 166.414063 358.90625 165.867188 359.664063 165.867188 360.457031 165.867188 360.828125 166.625 360.859375 167.449219L358.371094 167.449219M364.34375 165.453125L364.074219 165.453125 362.691406 165.789063 362.691406 166.101563C362.691406 166.101563 362.8125 166.078125 363.035156 166.078125 363.4375 166.078125 363.4375 166.277344 363.4375 166.679688L363.4375 169.746094C363.4375 170.371094 363.359375 170.507813 362.621094 170.507813L362.621094 170.828125 365.414063 170.828125 365.414063 170.507813C364.578125 170.507813 364.363281 170.394531 364.363281 169.691406L364.363281 167.148438C364.632813 166.703125 364.988281 166.234375 365.246094 166.234375 365.378906 166.234375 365.601563 166.613281 365.96875 166.613281 366.214844 166.613281 366.460938 166.433594 366.460938 166.011719 366.460938 165.632813 366.25 165.386719 365.8125 165.386719 365.277344 165.386719 364.945313 165.777344 364.375 166.601563L364.34375 166.601563 364.34375 165.453125M369.835938 170.136719C369.902344 170.628906 370.015625 170.886719 370.507813 170.886719 371.074219 170.886719 371.34375 170.652344 371.710938 170.117188L371.542969 169.9375C371.386719 170.105469 371.230469 170.214844 371.019531 170.214844 370.785156 170.214844 370.683594 170.125 370.683594 169.667969L370.683594 167.136719C370.683594 165.976563 370.226563 165.417969 369.011719 165.417969 367.796875 165.417969 367.046875 166.023438 367.046875 166.644531 367.046875 167.015625 367.292969 167.179688 367.515625 167.179688 367.828125 167.179688 368.007813 167.015625 368.007813 166.667969 368.007813 166 368.117188 165.765625 368.753906 165.765625 369.421875 165.765625 369.757813 166.132813 369.757813 167.101563L369.757813 167.59375C368.796875 167.894531 366.824219 168.1875 366.824219 169.65625 366.824219 170.371094 367.292969 170.90625 368.152344 170.90625 368.867188 170.90625 369.265625 170.59375 369.792969 170.136719zM369.757813 169.804688C369.378906 170.117188 368.976563 170.292969 368.609375 170.292969 368.128906 170.292969 367.804688 169.949219 367.804688 169.390625 367.804688 168.519531 368.742188 168.21875 369.757813 167.960938L369.757813 169.804688M375.070313 169.824219C374.789063 170.136719 374.644531 170.28125 374.289063 170.28125 373.851563 170.28125 373.753906 170.015625 373.753906 169.222656L373.753906 166.023438 375.011719 166.023438 375.011719 165.554688 373.753906 165.554688 373.765625 164.023438 373.472656 164.023438C373.070313 164.972656 372.738281 165.441406 372.214844 165.765625L372.214844 166.023438 372.828125 166.023438 372.828125 169.535156C372.828125 170.539063 373.148438 170.941406 373.898438 170.941406 374.609375 170.941406 374.84375 170.605469 375.28125 170.003906L375.070313 169.824219M381.324219 170.328125L381.214844 170.328125C380.679688 170.328125 380.542969 170.25 380.542969 169.589844L380.542969 165.496094 380.273438 165.496094 378.714844 165.664063 378.714844 165.976563C379.429688 165.976563 379.617188 166.03125 379.617188 166.625L379.617188 169.558594C379.171875 169.949219 378.8125 170.226563 378.246094 170.226563 377.664063 170.226563 377.242188 169.890625 377.242188 168.753906L377.242188 165.496094 376.996094 165.496094 375.554688 165.664063 375.554688 165.976563C376.160156 165.988281 376.316406 166.03125 376.316406 166.632813L376.316406 168.898438C376.316406 170.417969 376.851563 170.941406 377.777344 170.941406 378.492188 170.941406 379.015625 170.605469 379.605469 170.027344L379.664063 170.027344 379.664063 170.886719 379.90625 170.886719 381.324219 170.628906 381.324219 170.328125M383.742188 165.453125L383.472656 165.453125 382.089844 165.789063 382.089844 166.101563C382.089844 166.101563 382.214844 166.078125 382.4375 166.078125 382.839844 166.078125 382.839844 166.277344 382.839844 166.679688L382.839844 169.746094C382.839844 170.371094 382.757813 170.507813 382.023438 170.507813L382.023438 170.828125 384.8125 170.828125 384.8125 170.507813C383.976563 170.507813 383.765625 170.394531 383.765625 169.691406L383.765625 167.148438C384.03125 166.703125 384.390625 166.234375 384.644531 166.234375 384.78125 166.234375 385.003906 166.613281 385.371094 166.613281 385.617188 166.613281 385.859375 166.433594 385.859375 166.011719 385.859375 165.632813 385.648438 165.386719 385.214844 165.386719 384.679688 165.386719 384.34375 165.777344 383.773438 166.601563L383.742188 166.601563 383.742188 165.453125M390.53125 169.234375C390.171875 169.703125 389.828125 170.105469 388.921875 170.105469 388.03125 170.105469 387.183594 169.402344 387.183594 167.863281L390.707031 167.863281C390.652344 166.300781 389.851563 165.417969 388.632813 165.417969 387.328125 165.417969 386.28125 166.3125 386.28125 168.175781 386.28125 169.96875 387.316406 170.941406 388.65625 170.941406 389.804688 170.941406 390.339844 170.238281 390.742188 169.390625zM387.171875 167.449219C387.261719 166.414063 387.707031 165.867188 388.464844 165.867188 389.257813 165.867188 389.628906 166.625 389.660156 167.449219L387.171875 167.449219" />
</svg>